<svg id="Layer_1" data-name="Layer 1" xmlns="http://www.w3.org/2000/svg" viewBox="0 0 600 531"><path d="M226.39,181.69c27.62-.45,54.3-15.75,82.73-17.52h.43c68.16-9,136.91-12.58,204.4-26.38.27-.06.53-.12.79-.2,49-15-66-5.69-73.05-58.19-3.2-23.78-9.83-58.55-37.82-63-23.31-4.82-60.22-8.39-93.44,6.22-.73.32.75-.31,0,0-30.64,12.83-39.6,19.07-38.76,50.69.39,14.68-6.23,28.89-18.54,35.92-48.15,26.56-96.5,62.92-28,72.39A7.61,7.61,0,0,0,226.39,181.69Z"/><path d="M568.51,490.38c32.79-19.59-34.82-80.81-53.84-50.95-1.81,2.84-2.36,7.69-3.59,11.86s-5.86,6.62-10.73,5.35c-12.85-3.33-54.44,6.37-77.79,2-23.29-6.68-7.17-47.22-6.76-63.18a36.09,36.09,0,0,0,1.65-5.58c-10,12.53-20.92,24.45-31.18,36.77-12.39,14.87-22.92,31.21-35.87,45.58a115.17,115.17,0,0,0-7.86,9.89l-.39.53c11,22,34.51,53.6,61.71,54.37,37.4,2.76,63.69-12,99.78-18.2,8-1.39,24.61-5.57,25.64-9.61C521.7,478.55,528.72,494.69,568.51,490.38Z"/><path d="M581.71,514.69,40.31,27.94a6,6,0,0,1-.45-8.47l8.27-9.14a6,6,0,0,1,8.47-.45h0L598,496.64a6,6,0,0,1,.44,8.46l-8.26,9.15A6,6,0,0,1,581.71,514.69Z"/><path d="M217.35,219.7a79.8,79.8,0,0,0-7.57-26.7c-8.4-17.14-17.38-34-26.61-51.85a.33.33,0,0,1,0-.14c-2.84-3.76-3.78-8.72-5.57-13-2.51-6-11.88-2.26-14.32-8.25-4.31-10.57-5.34-12-15.13-18-1.48-.5-2.85-9.78-4-10.17-7.46-2.48-8.7-15.7-8.65-23.09a1.39,1.39,0,0,1,1-1.29c21.12-6,33.75-19.74,38.48-40.44a1.41,1.41,0,0,0-2.11-1.47c-6.71,3.71-13.68,2.26-20.5-.11-10.21-3.56-19.85-3.75-27.92,2.39-.34.26-.06,1.65-1.12-.08C116.5,16.33,106,9.5,97.33.42A1.32,1.32,0,0,0,95,1.55c1.64,9.87-2,18.21-5.6,27.21-1.85,4.69-1.4,10.53-.85,15.74.4,4,1.84,7.83,3.26,12.43l.06.14c1.47,3,4.46,4.12,1.36,7.69a21.12,21.12,0,0,1-5.62,4.91C83.46,71.76,80.17,77,76.93,80.29a53.86,53.86,0,0,0-8.59,12,78.59,78.59,0,0,1-6.45,10.07v.08c-12.39,20.39-24.43,40.36-36.6,60.25C10.22,187.29,0,213.25.35,242.4.51,257.91,2,273.12,10.54,286.58c13.12,20.75,34.12,29,57.66,32.07,9.33,1.22,19,1.07,28.35,1.24,33.45.63,51.5.82,78.86-17a42.77,42.77,0,0,0,4.47-3.36c16.64-14.11,26.14-21.88,32.44-40.48C220,236.27,218.92,234.6,217.35,219.7Z"/><path d="M392.67,276.63c10.37-53,33.08-26.76,51.64-40a15,15,0,0,0,6.13-11.16c1.08-15.41-7-38.13,8.34-43.45,6.66-3,8.86-5.77,2-12.18-1.62-1.5-8.41-7.42-9.81-15.92-2.73-16.52-9.47-25.78-13.77-47.64-13.53-47.85-65.8-77.6-114.4-61.67a90.92,90.92,0,0,0-41.61,28.93,118.22,118.22,0,0,0-16.95,42.11c-.64,9.48-1.57,18.94-1.72,28.33,2.78,11.16,3.93,22.71,5.92,34a1.7,1.7,0,0,0,.05.5c2.82,8.23,11.28,21.91,13.85,29.35,3.67,10.58,11.67,35.5,12,36.35,10.81,12.22,9.88-16.17-4-12.65"/><path d="M300.68,212.9c-17.85-2.46-15.84,18.55-26.65,23.35-166.49,74-136.35,82.42-135,331.29.58,104.4-29.37,136.84-60.59,231.24,23.37,5.74,15.72,80.82,18.83,98.89-7.11,50.78-25.37,103.59-59.39,143-39.88,28.24-100.17,123.19-143.81,122-8.9-2.16-14.44,3-18.53,10.92-13.55,46.38,28.94,24-17,74-11.45,18.55-20.65-11.08-39.45,13.63-18,25.62-37.62,47.11-70.84,47.74-43.51,18-72.17,51-34.58,92.43,5.34,13.17,20.14,1.7,28.68,10.94,21,22.94,23,63.39,55.89,74.13,38.12,10.74,91.94,34.46,128.15,15,11.76-21.36.32-49.47-23.92-53.39-26.24-2.92-36-36.08-36.64-58.46-.29-29.09,70.14-16,49.71-51.06-19.49-21.57,9-30.8,22.34-45.21,17.41-8.44,31.29,26.24,44.63,36,16.07,19.11,41.34-5.18,34.07-22.9-10-23.84,90.6-101.34,109.32-127.14,50-43.94,75.82-105.93,111.52-159.52,36.14,69.08,26.63,144.69,22.33,219.68,0,14.63-.78,25.94-13.7,36.24-13.64,10.87-9.88,25.71,6.65,31.89,63.17,17.36,51.78-13.58,68,62.75,2.4,14.48-22.77,16.32-9.1,30.89,34.2,55.93-5.14,85.74,4.28,136.85-1.56,37,33.19,35.51,60.93,36.91,10.52-1.24,12.74-17.44,24.9-12.6,54.4,8.62,129.59,39.32,176.56,1.77,4.57-19.57,9-44.59-14.75-52.45-213.17-41.78-57.55-132.87-139.84-142-20.71-3.83-7.78-33.82-11.68-48.82-7.45-29.58,38.89-13,35.64-42.82-22.78-47.46-28.59,12.34-23.56-83.23,9.81-81.4-32.7-270.27,12.09-330.52,12-6.1,11.37-9,8.09-21.93-9.49-87.31-20.88-79.78-20.7-167.82-1.91-10.6-13.3-42.44-12.45-51.34,2.17-22.85,14.6-6.67,15.66-29.61,3.6-77.72,22.9-174.44,26.43-202.69,2.11-16.83,9.19-69.09-11-91.3-14.22-16.21-27.53-19.26-34-27.18-2.49-3.05-12.35-8.07-7.91-19.23"/></svg>