<svg id="Layer_1" data-name="Layer 1" xmlns="http://www.w3.org/2000/svg" viewBox="0 0 1010.21 893.51"><defs><style>.cls-1{fill:none;stroke:#727272;stroke-linecap:round;stroke-linejoin:round;stroke-width:3px;}.cls-2{fill:#fff;stroke:#fff;stroke-miterlimit:10;}</style></defs><path class="cls-1" d="M188,745.92C681.34,666.85,745.9,594.86,743.76,575.86c-.12-1,3.15-12.46-2.3-18.48-13.94-15.4-36.21-7-46.49-11.67-11.5-5.27-4.16-11.59-1-13.92,13.06-9.74,38.19-8.39,38.77-16.58.82-11.59-10.45-16.3-17-16-46,2.12-119.47,20.06-160,29.71" transform="translate(0 -0.01)"/><path class="cls-2" d="M414.4,649.93a20,20,0,0,0-1.21-6.77c-1.65-4.43-3.45-8.8-5.29-13.43h0a14,14,0,0,1-1-3.34c-.48-1.54-2.88-.85-3.33-2.39-.8-2.71-1-3.09-3.29-4.8-.35-.16-.46-2.48-.73-2.61-1.78-.79-1.76-4.08-1.57-5.9a.33.33,0,0,1,.28-.29,12.73,12.73,0,0,0,10.48-9,.36.36,0,0,0-.24-.44.53.53,0,0,0-.25,0c-1.74.75-3.42.22-5-.53-2.43-1.13-4.8-1.41-6.94-.1-.09.06-.06.41-.28,0-1.41-2.92-3.83-4.86-5.74-7.31a.32.32,0,0,0-.44-.12h0a.33.33,0,0,0-.15.33c.16,2.47-.94,4.43-2.05,6.56a8.61,8.61,0,0,0-.6,3.86,17.56,17.56,0,0,0,.5,3.14h0c.29.78,1,1.13.15,1.93a5,5,0,0,1-1.51,1.07c-1.07.41-2,1.62-2.89,2.35a13.45,13.45,0,0,0-2.41,2.75,18.75,18.75,0,0,1-1.84,2.32h0c-3.55,4.72-7,9.35-10.5,14-4.32,5.69-7.47,11.84-8.1,19-.34,3.82-.35,7.61,1.42,11.13,2.73,5.44,7.7,8,13.42,9.32a65.89,65.89,0,0,0,7,1c8.22,1,12.67,1.46,19.85-2.25a12.81,12.81,0,0,0,1.18-.72c4.45-3.07,7-4.75,9-9.18C414.64,654.08,414.42,653.64,414.4,649.93Z" transform="translate(0 -0.01)"/><path class="cls-2" d="M530.66,814.17c.8-4.07,1.85-8.09,1.35-12.22a23.28,23.28,0,0,1,.42-3.72,5.63,5.63,0,0,1,1.78-2.26c1.29-.92,2.81-1.5,3.82-2.71a10.87,10.87,0,0,0,3.21-3.3c1-1.93-.7-3.36-2.13-4.49-2.57-2-5.35-3.83-7.79-6a10.41,10.41,0,0,1-2.59-4.23c-.41-1.17-.07-2.6-.06-3.9l3.67-1.68a8.42,8.42,0,0,1-.68-8.7c.82-1.73,2.16-2.86,4.1-2.14a30.82,30.82,0,0,1,6.3,3.06c1.76,1.16,3.29,1.81,5.44,1.11,4.52-1.46,9-1.66,13.19,1.24a8,8,0,0,0,2.78.91c2.13.5,4,1.23,5.15,3.36a4.41,4.41,0,0,0,1.94,1.71c1.57.79,1.84,1.64.38,2.63l8.27,7.85c-2.51,2.92-3.21,7.39-7.91,8.4-.28,1.48-.13,3.28-.93,4.4-1.44,2-.48,3.35.52,4.86a84,84,0,0,1,5.4,8.41c.7,1.41.47,3.44.21,5.11-.38,2.4-1.28,4.72-1.78,7.1-1.22,5.75-2.36,11.52-3.49,17.29a29.48,29.48,0,0,0-.92,6.26c.11,4.14.88,8.27.88,12.4,0,7-.22,14.11-.62,21.16-.16,2.8-1.07,5.56-1.56,8.35-.15.82-.41,2,0,2.46,1.45,1.56.74,3,.41,4.11-4.12,1.63-8,2.79-12.1,1.4V882a3.35,3.35,0,0,0-.31-1.76c-1.54-2.37-3.2-4.67-4.79-7-.36-.53-.61-1.15-.92-1.72l-.8.58a48.37,48.37,0,0,1,.71,6c0,1.39-.26,3.75-1,4a9.38,9.38,0,0,1-5.17-.29c-1.61-.46-1.91-1.94-1.66-3.63.37-2.35-.89-4.65-2.9-5a4.1,4.1,0,0,1-3.71-4.2,79.09,79.09,0,0,1,.25-8,26.49,26.49,0,0,0,.1-4.08c-.42-3.64-.92-7.27-1.53-10.88a6.56,6.56,0,0,0-1.34-2.24c-1-1.41-2.34-2.67-2.83-4.22a85.8,85.8,0,0,1-2.1-9.51,15.09,15.09,0,0,1-.47-4.39C529.36,821.75,529.92,817.93,530.66,814.17Z" transform="translate(0 -0.01)"/><path class="cls-2" d="M499.61,735.73l1.84-1.84a27.43,27.43,0,0,0-.49-4.43c-1.35-5.17-2.91-10.28-2.82-15.72a9.86,9.86,0,0,0-.71-3.91,30.64,30.64,0,0,1-2.3-10.07c-.17-5.28-.8-10.33-3-15.15a2.92,2.92,0,0,1,0-2.42c2.18-2.93,0-5-1.24-7.64.26-4.42-1.54-9-1.2-13.93.21-3,0-6.35-1.26-8.89-1-2-.42-3.94-1.15-5.87-2.4-6.35-5.42-12.18-10-16.16l-9.75-3c.13-1-.07-2.32.38-2.6,2.15-1.39,2.21-3.87,2.68-5.77A4,4,0,0,1,473.8,615c.12-1.7.24-3.36.35-4.91,4.55-.74,8.09,3.57,12.63,1.54-1.77-6-8.11-6.84-11.34-10.13,1.12-4,.35-7.65.65-11l-2.21-2.21c-4-1.52-7.88-2.35-11-4.78a8.72,8.72,0,0,0-5-2.07,7.86,7.86,0,0,1-2.46-.74l-5.75,1.15L440.31,592c-3.52-1.92-7.51-.61-11.18-1-.67.71-1.11,1.18-1.74,1.87L442,600.69c-1.72,5.65-.27,11.11.25,15.42-1.23,3.18-3.06,2.11-4.88,2.41l-3.08,3.63c-4.45-1.1-8.85-2-13.1-3.29-5.63-1.77-11.36-3.14-17.05-4.66-2.6-.69-5.43-.94-7.75-2.32a5.86,5.86,0,0,1-1-.33c-1.81-.54-3.68-.86-5.52-1.33-2-.52-3.88-1.58-5.91-2.15a70.53,70.53,0,0,0-10.86-2.36c-.24,1-.44,1.92-.61,2.88l.28.36c6.43,1.27,12.87,3.5,19.18,5a45.66,45.66,0,0,1,11.36,4.51c8.77,1.9,16.79,5.49,25.5,7.61-2.6,1.44-4.71,3.16-7.12,3.83-6.24,1.74-8.27,6.71-8.79,12-.47,4.75-2,9.45-1.26,14.32.13.86.38,2-.05,2.58-1.88,2.37-.6,5-1,7.53s-.86,5-1,7.47a33.82,33.82,0,0,0,.84,7.5c.64,4.12.33,8.42.13,12.63s.91,8.25-.95,12.25a3.71,3.71,0,0,0,0,3.09c1.68,2.59.66,5.38,1,8,.35,2.84.79,5.68,1,8.53a19.17,19.17,0,0,1-.87,5.92c-.63,2.67-.16,5.59-.16,7.79l2.7,3.48h5.49c.81,3.51,1.73,6.85,2.32,10.25.55,3.16.27,6.54,1.25,9.53.79,2.38.06,5.08,1.1,6.88,1.33,2.31.09,4.56.95,6.49,1,2.16.85,4.28,1,6.46.46,7.76-.72,15.54.9,23.33.89,4.27.39,8.82,1,13.27.58,4.13.77,8.5-.77,12.75-1.15,3.15,1.18,6.3.93,10.07l2.86,2.39c.46,2,.78,3.38,1.12,4.88a14.63,14.63,0,0,0-5.54,8.63c-.29,1.3-.16,2.82-.82,3.87-1.9,3-.24,5.24,1.53,7.19a11.46,11.46,0,0,1,3,8.27v5.73c6.19,3.19,12.28,4.79,19.17,1.81-1.25-4.16-2.5-8.37-3.73-12.46l3.45-2V856.29c-2.12-2.48-3-4.46-4.14-9,1.14-2.06,2.33-4.2,3.55-6.38h2.76v-2.54c1.34-1.13,2.76-2.36,4.21-3.56.91-.76,2.11-1.3,2.73-2.23,2.65-4,5.35-8.08,4.69-13l3.18-4.69a4.3,4.3,0,0,1,0-1.75c1.67-4.16,1.94-8.68,2.9-13,1.06-4.75.36-9.85,1.14-14.83.94-5.91-.74-12.08,1.2-18-.41-7.58,1-15.26-1.17-22.81,3-2.84,7.86-1.92,10.62-5.18.06-2,.23-4-.94-5.91a8.56,8.56,0,0,1-1.07-4.26,30,30,0,0,0-1.84-9.74c-.79-2.34-1.66-5.12-1.06-7.31a17.45,17.45,0,0,0,.76-5.42c-.12-2.81,1.26-5.17,1.52-8.71.94,3,1.5,5,2.23,7a130,130,0,0,1,6.9,26.68,11.91,11.91,0,0,0,1.77,5c.61.9,2.27,1.08,3.06,1.41-.23,2.48-1.22,5.1-.46,7,1,2.59.64,5,.85,7.55.09,1,.12,2,.17,2.94a2.5,2.5,0,0,0,2.15-.83,3.55,3.55,0,0,1-.17-.64c0-.16.37-.37.63.17.19,0,0,.67-.17,1.3-.07-.2-.14-.4-.22-.6-1.1,2-1.85,2.91-2.34,4a25.74,25.74,0,0,0-1.13,3.85H493l6.32-6.3v-3.93l3.1-1.84C501.44,745.51,500.54,740.69,499.61,735.73ZM445,802.07c0-7.5-2.92-14.65-1.22-22.83,1.19,7,2.23,13,3.36,19.54Z" transform="translate(0 -0.01)"/><path class="cls-1" d="M1008.71,252.76c-36.09,5.44-95.66,10.89-159.52-4.5-89.45-21.57-150.85-72.39-183.25-78.58-77-14.73-176.92,76.4-303.31,74.08C289,242.41,117.14,35.19,90.68,54.41,53.76,81.3,62.94,92.56,1.5,160.67" transform="translate(0 -0.01)"/><path class="cls-1" d="M577.59,440.25" transform="translate(0 -0.01)"/><path class="cls-1" d="M1007.28,345.15c-112.94-.52-261.13-8.83-423.79,85.13" transform="translate(0 -0.01)"/><path class="cls-1" d="M716.53,372.91C603.59,372.41,435.18,305.79,3.85,429" transform="translate(0 -0.01)"/><path class="cls-1" d="M251.78,350.48C71.55,198.74,93.85,155.29,3.85,255.11" transform="translate(0 -0.01)"/><path class="cls-1" d="M722.05,603.22C612.28,572.41,426.79,391.85,8.28,527.67" transform="translate(0 -0.01)"/><path class="cls-1" d="M632.33,169.16C472.41,12.82,540.76,59.81,379.06,140.57" transform="translate(0 -0.01)"/><path class="cls-1" d="M457.52,93.79C314.28-37.59,384.06-30.88,194.1,128.05" transform="translate(0 -0.01)"/><path class="cls-1" d="M578.28,115.94c-11.76-8.32-19.68-8.16-24.84-6.27s-7.17,5.26-13.41,6.07c-7.73,1-10-6-16.07-3.78-13.06,4.78-21.49,20-27.77,17.66-12.11-4.4-.52-16.87-6.63-23.5-5.38-5.84-23.1,11.37-36.5-8.6" transform="translate(0 -0.01)"/><path class="cls-1" d="M789.28,882.93c36.22-92.52,40.26-221.12,39.49-264.22-.69-38.78,5.42-34.65,1.52-45.74-14.57-41.5-78.3-32.53-87.7-46.82-7.18-10.92,25.63-18.44,20.55-25.14C714,436.12,551.48,532,546.71,513.28c-2.06-8,39.15-15.36,32.1-36.65S470.28,462.48,443,459c-10-1.29-1.94-12.55,5.12-15.69,71.06-31.55,123-30.3,159.32-56.39,5.56-4,13.82-14.64,4.1-23.52" transform="translate(0 -0.01)"/><path class="cls-1" d="M591.71,361.25c-8.92,54.09-126.64,39.76-165.55,77.42-4.35,4.22-12.91,15.41-3.69,23.13,23.62,19.77,85.83.38,121,16.55,1,.46,11.77,3.32,11.69,7-.23,11.15-33.64,18.81-34.93,30.1" transform="translate(0 -0.01)"/><path class="cls-1" d="M615.84,363.1c-24.64-29-44.62-52.79-79.33-78.53-27.86-20.66-67-47.08-86.1-52.89" transform="translate(0 -0.01)"/><path class="cls-1" d="M591.71,361.25c-21-21.9-78.61-67.2-109.67-88.56-13.09-9-51.51-26.92-63.68-33.64" transform="translate(0 -0.01)"/><path class="cls-1" d="M422.66,238.25c-9.48-16.08-18.56-22.68-24.89-25-12.65-4.58-19.64-5.34-43.38.9-1.41.37,10.55-15.8,14.62-20.15,7.15-7.63-2.57-17.94-7.73-21.67-15-10.81-51-19.36-51.85-30.54-.32-4.16,36-12.43,47.77-21.22,16.18-12,16.39-20.28,27.21-54.43,2.8-8.85,15.87-8.7,23.49-20.1" transform="translate(0 -0.01)"/><path class="cls-1" d="M413.93,239.82c-8.07-10-19.4-22.58-24.4-24-8.06-2.28-13.46,2.77-25.18,5.52-8.86,2.08-13.2,2.5-16.46-1.38-6.14-7.28,20.08-23.09,16-35.08-1.91-5.7-9.27-9.66-27.73-16.63-18.91-7.13-26.3-11.12-31.26-16.18-4.31-4.4-4.67-10.14.26-15.9,8.8-10.27,29-3.64,45.88-17.37,25-20.38,20-41.33,18.06-44.24-.77-1.16-8.75,6.26-11.68,5.92-8.29-1-6.95-11.89-12.79-13.2-8.51-1.92-12.4,4.62-23.33,13.53-1.83,1.49-10.89,7.69-12.44,5.71-5.68-7.28,14.12-30.67,9.54-35-.69-.65-7.11-3.75-10.56-2-4.67,2.43-5.25,6-8.81,6.88-1.93.45-8.32-4.52-12.79-10.85" transform="translate(0 -0.01)"/><path class="cls-1" d="M170,106.48c-1.87,3.53-5.88,10.14-11.15,12.7-5.57,2.71-16.15-3.44-27.55-7-24.78-7.67-22.83-5.14-27.68,1.22-7.3,9.58-5,9.72-20,21.08-6,4.54-7.08,7.16-12.15,4.09-5.67-3.43-6.64-4-11.51-20.11-1.63-5.36-9.32-10.69-11.58-12" transform="translate(0 -0.01)"/></svg>